<?xml version="1.0" standalone="no"?>
<!DOCTYPE svg PUBLIC "-//W3C//DTD SVG 20010904//EN"
 "http://www.w3.org/TR/2001/REC-SVG-20010904/DTD/svg10.dtd">
<svg version="1.0" xmlns="http://www.w3.org/2000/svg"
 width="400.000000pt" height="400.000000pt" viewBox="0 0 400.000000 400.000000"
 preserveAspectRatio="xMidYMid meet">
<metadata>
Created by potrace 1.11, written by Peter Selinger 2001-2013
</metadata>
<g transform="translate(0.000000,400.000000) scale(0.100000,-0.100000)"
fill="#000000" stroke="none">
<path d="M1835 3784 c-355 -38 -628 -121 -881 -269 -562 -329 -884 -881 -884
-1515 0 -285 58 -534 181 -783 94 -188 192 -319 356 -477 284 -273 629 -440
1058 -511 168 -28 483 -30 650 -5 589 90 1065 385 1358 843 202 315 299 735
257 1108 -63 544 -334 983 -795 1288 -310 204 -678 313 -1085 322 -96 2 -193
1 -215 -1z m365 -64 c560 -50 1064 -323 1364 -740 145 -201 234 -407 288 -665
19 -96 22 -138 22 -325 -1 -195 -3 -226 -28 -338 -112 -512 -423 -915 -899
-1167 -57 -30 -109 -55 -116 -55 -7 0 20 22 61 49 323 217 555 558 647 954 38
160 51 418 31 587 -62 518 -338 949 -769 1200 -458 266 -1053 281 -1537 37
-279 -140 -533 -401 -678 -692 -115 -234 -166 -463 -166 -747 0 -276 50 -498
165 -733 120 -247 274 -428 500 -590 44 -31 82 -59 85 -62 3 -3 -49 22 -115
56 -467 240 -785 654 -896 1167 -31 138 -38 457 -15 594 50 291 146 523 310
744 77 105 249 277 355 355 389 287 875 416 1391 371z m104 -359 c630 -129
1078 -584 1209 -1225 32 -160 32 -471 -1 -631 -109 -531 -439 -940 -917 -1136
-247 -101 -538 -131 -873 -89 -161 20 -362 94 -524 191 -370 223 -617 581
-711 1029 -18 89 -22 138 -22 320 0 237 13 330 74 517 176 539 635 937 1181
1027 52 9 106 18 120 20 65 12 369 -4 464 -23z"/>
<path d="M1730 3645 c0 -9 5 -15 11 -13 6 2 11 8 11 13 0 5 -5 11 -11 13 -6 2
-11 -4 -11 -13z"/>
<path d="M1897 3625 c-10 -14 -13 -25 -7 -25 5 0 10 -20 10 -44 0 -25 6 -48
13 -53 16 -10 107 -12 107 -1 0 4 -4 8 -10 8 -5 0 -10 16 -10 35 0 29 5 37 26
46 15 5 28 8 28 7 1 -2 10 -22 20 -44 22 -51 18 -78 -12 -82 -27 -4 -24 -27 4
-27 14 0 30 23 61 83 38 74 40 82 23 82 -11 0 -19 -3 -18 -7 3 -14 -13 -53
-22 -53 -12 0 -23 37 -15 50 6 10 -2 12 -90 15 -73 3 -75 4 -75 20 0 22 -12
18 -33 -10z m71 -72 c3 -37 1 -41 -17 -36 -17 4 -21 13 -21 45 0 32 3 39 18
36 12 -2 18 -15 20 -45z"/>
<path d="M2270 3622 c-53 -53 -36 -129 35 -152 47 -15 74 -5 82 31 3 16 10 32
14 35 17 10 9 22 -20 26 -27 4 -29 3 -25 -26 6 -42 -8 -60 -39 -52 -29 7 -52
54 -42 88 19 61 70 76 104 31 l20 -28 1 31 c0 18 -5 31 -12 32 -7 0 -30 4 -50
7 -33 7 -41 4 -68 -23z"/>
<path d="M1802 3593 c-13 -25 -5 -41 30 -59 22 -11 27 -19 19 -27 -7 -7 -16
-5 -31 8 -20 18 -20 18 -20 -4 0 -20 5 -22 38 -19 32 3 37 7 40 29 2 21 -3 29
-27 39 -31 12 -37 21 -24 33 3 4 15 0 25 -10 17 -15 18 -15 18 5 0 18 -6 22
-30 22 -18 0 -33 -7 -38 -17z"/>
<path d="M1724 3588 c-4 -6 -2 -14 4 -16 7 -2 12 -21 12 -43 0 -53 -26 -53
-35 0 -8 51 -28 68 -58 53 -12 -6 -40 -13 -63 -15 -59 -6 -65 -12 -47 -48 8
-17 13 -41 10 -55 -3 -17 0 -24 12 -24 19 0 52 20 34 20 -17 0 -28 69 -14 83
17 17 32 -4 34 -52 1 -31 5 -40 15 -36 7 3 17 5 22 5 4 0 1 18 -6 41 -15 43
-12 59 11 59 13 0 30 -55 23 -75 -2 -6 -1 -11 2 -13 10 -7 110 11 110 19 0 5
-4 9 -10 9 -5 0 -10 15 -10 34 0 19 -3 41 -6 50 -7 19 -30 21 -40 4z"/>
<path d="M2424 3530 c-1 -23 -7 -47 -13 -53 -18 -18 -13 -27 17 -27 26 0 28 3
24 30 -5 34 12 62 33 54 14 -6 30 12 18 19 -5 3 -24 8 -43 12 l-35 6 -1 -41z"/>
<path d="M1270 3535 c-10 -12 -10 -15 2 -15 16 0 54 -102 50 -133 -2 -15 3
-17 20 -11 31 9 33 11 20 27 -24 28 -32 65 -16 77 11 10 17 6 29 -23 8 -20 12
-43 9 -51 -7 -19 -4 -19 33 -5 21 8 24 12 13 19 -8 5 -19 24 -25 41 -15 42
-38 58 -64 42 -17 -11 -20 -9 -26 17 -7 33 -25 39 -45 15z"/>
<path d="M1439 3529 c-36 -36 -8 -109 42 -109 21 0 49 26 49 46 0 19 -10 18
-26 -3 -10 -14 -17 -16 -30 -7 -30 18 -26 31 11 38 40 8 43 16 17 39 -24 22
-38 21 -63 -4z m30 -20 c-16 -10 -23 -4 -14 10 3 6 11 8 17 5 6 -4 5 -9 -3
-15z"/>
<path d="M2506 3518 c-9 -12 -16 -29 -16 -38 0 -30 30 -60 60 -60 52 0 80 69
42 103 -26 24 -68 21 -86 -5z m68 -4 c10 -26 7 -41 -13 -65 l-18 -23 -12 23
c-10 18 -10 29 -1 52 14 32 34 38 44 13z"/>
<path d="M1204 3509 c-46 -13 -69 -44 -68 -90 2 -54 35 -89 84 -89 41 0 80 33
80 66 -1 15 -4 14 -16 -8 -17 -33 -57 -46 -81 -27 -9 8 -22 29 -30 47 -12 30
-12 37 2 58 16 25 58 33 70 14 13 -21 24 -9 13 15 -6 14 -14 25 -17 24 -3 0
-20 -5 -37 -10z"/>
<path d="M2634 3505 c3 -8 -1 -30 -9 -49 -18 -43 -11 -66 21 -66 13 0 24 -4
24 -10 0 -5 8 -10 18 -10 24 0 51 108 30 121 -21 14 -30 10 -23 -10 8 -27 -15
-71 -38 -71 -14 0 -17 4 -12 18 26 63 28 74 14 83 -21 13 -32 11 -25 -6z"/>
<path d="M2750 3449 c0 -26 -40 -119 -51 -119 -18 0 -8 -17 16 -28 20 -9 26
-9 24 1 -4 33 1 39 31 32 24 -5 35 -1 55 19 29 29 31 74 5 86 -8 4 -25 12 -37
18 -32 17 -43 15 -43 -9z m68 -40 c1 -9 -6 -27 -17 -40 -15 -19 -22 -21 -32
-12 -9 9 -9 19 1 43 13 32 42 38 48 9z"/>
<path d="M990 3400 c-8 -15 -8 -20 3 -20 8 0 27 -24 43 -52 39 -71 38 -68 15
-68 -12 0 -27 12 -38 30 -10 18 -26 30 -39 30 -25 0 -59 -34 -49 -49 10 -18
25 -12 25 9 0 11 7 20 15 20 19 0 19 -2 -2 -45 -15 -32 -15 -37 -1 -51 12 -13
20 -14 37 -5 11 7 21 16 21 22 0 6 5 7 10 4 6 -3 13 1 16 9 3 9 14 16 23 16
22 0 63 29 41 30 -8 0 -33 32 -54 70 -22 39 -43 70 -48 70 -4 0 -12 -9 -18
-20z m15 -170 c-3 -6 -10 -10 -16 -10 -10 0 -12 33 -2 44 9 9 26 -22 18 -34z"/>
<path d="M3023 3392 c1 -26 -53 -113 -77 -121 -18 -7 -14 -12 37 -45 72 -46
89 -53 81 -33 -7 20 51 106 78 116 20 7 19 9 -10 29 -35 26 -43 27 -36 8 4
-11 -61 -126 -72 -126 -13 0 -34 14 -34 23 0 20 64 117 77 117 22 0 14 14 -16
32 -28 15 -30 15 -28 0z"/>
<path d="M2835 3330 c-4 -6 -3 -15 0 -21 4 -6 -1 -17 -11 -24 -18 -14 -18 -14
2 -15 24 0 44 18 44 41 0 19 -26 33 -35 19z"/>
<path d="M3162 3298 c-18 -18 -14 -28 9 -25 12 1 24 -3 26 -9 5 -15 -76 -116
-88 -108 -22 13 -7 -15 16 -30 28 -18 39 -21 30 -6 -4 6 12 36 35 66 34 46 44
53 56 43 8 -7 13 -18 10 -26 -3 -7 -1 -13 5 -13 25 0 21 34 -7 57 -67 55 -80
63 -92 51z"/>
<path d="M854 3245 c-4 -8 -12 -15 -19 -15 -26 0 -24 -30 5 -59 17 -16 30 -37
30 -45 0 -22 5 -20 53 16 23 18 43 33 45 34 1 0 -15 19 -36 42 -40 43 -68 53
-78 27z m50 -40 c33 -50 8 -78 -27 -29 -18 24 -17 54 2 54 5 0 16 -11 25 -25z"/>
<path d="M752 3164 c-29 -20 -29 -64 1 -92 30 -28 62 -28 81 0 21 29 20 51 -1
76 -25 29 -55 35 -81 16z m59 -35 c23 -23 21 -42 -5 -47 -22 -5 -56 25 -56 50
0 25 35 23 61 -3z"/>
<path d="M3346 3149 c8 -13 -95 -105 -113 -101 -19 4 -16 -1 19 -34 18 -17 29
-22 25 -12 -3 9 2 23 14 34 18 17 19 16 19 -19 0 -21 -4 -37 -10 -37 -5 0 18
-35 52 -77 l62 -78 38 35 c41 38 47 60 23 80 -13 11 -11 15 11 32 22 18 24 23
12 35 -12 11 -20 8 -56 -26 -60 -58 -79 -66 -91 -42 -6 11 -8 40 -4 66 l6 47
53 -4 52 -5 -16 23 c-18 25 -32 31 -32 14 0 -5 -16 -10 -35 -10 -19 0 -35 4
-35 8 0 15 24 32 44 32 18 0 18 1 -4 25 -24 25 -47 35 -34 14z m114 -232 c-1
-19 -49 -49 -68 -42 -14 5 -12 11 16 36 32 28 52 31 52 6z"/>
<path d="M630 3126 c0 -9 7 -16 16 -16 9 0 14 5 12 12 -6 18 -28 21 -28 4z"/>
<path d="M671 3081 c-9 -17 -9 -21 3 -21 7 0 27 -15 44 -34 30 -34 31 -34 48
-15 13 14 14 19 3 19 -7 0 -30 16 -50 36 -36 35 -37 36 -48 15z"/>
<path d="M604 3044 c3 -9 6 -23 6 -31 0 -9 3 -13 6 -10 4 4 22 -7 41 -23 18
-17 37 -30 42 -30 15 0 33 29 26 41 -6 8 -9 8 -15 0 -9 -16 -61 26 -58 46 2
10 -6 16 -25 19 -22 2 -27 -1 -23 -12z"/>
<path d="M562 2968 c-17 -17 -15 -58 3 -58 12 0 14 7 9 26 -5 19 -3 25 6 22 8
-2 14 -25 15 -61 l3 -58 -31 20 c-18 12 -31 27 -31 34 1 9 -10 14 -28 14 -21
0 -27 -4 -23 -14 3 -8 5 -21 5 -29 0 -9 4 -12 10 -9 5 3 27 -6 50 -21 33 -22
42 -24 55 -14 9 7 14 19 11 27 -3 7 1 13 10 13 9 0 18 9 21 19 3 11 11 22 19
25 8 3 14 15 14 26 0 12 -5 18 -10 15 -6 -3 -22 3 -36 14 -30 24 -54 27 -72 9z
m73 -56 c0 -18 -20 -15 -23 4 -3 10 1 15 10 12 7 -3 13 -10 13 -16z"/>
<path d="M3497 2863 c-13 -12 -7 -23 13 -23 11 0 20 -4 20 -8 0 -18 -13 -20
-39 -4 -15 8 -35 13 -44 9 -20 -7 -23 -42 -4 -54 6 -4 22 -29 34 -55 l23 -48
26 25 c27 25 64 34 64 15 0 -5 7 -10 15 -10 21 0 19 11 -11 45 -17 20 -27 26
-31 17 -4 -10 -54 -42 -66 -42 -2 0 -4 7 -4 15 0 9 15 25 34 36 37 23 40 35
17 67 -15 22 -35 28 -47 15z m-3 -52 c3 -5 -1 -14 -8 -20 -16 -13 -32 2 -21
19 8 12 22 13 29 1z"/>
<path d="M467 2833 c-10 -9 -9 -35 1 -29 11 6 72 -31 72 -43 0 -21 -22 -21
-55 -1 -29 18 -38 20 -50 10 -19 -16 -20 -34 -1 -27 7 3 28 -3 45 -14 44 -27
56 -24 80 17 26 43 26 54 4 54 -10 0 -31 9 -48 20 -33 22 -38 23 -48 13z"/>
<path d="M403 2708 c-35 -56 -43 -94 -17 -84 15 6 116 -39 122 -55 6 -16 19
-9 30 16 9 20 9 26 -1 24 -33 -4 -38 1 -32 35 6 28 3 36 -20 55 -31 23 -70 28
-82 9z m81 -38 c12 -12 0 -40 -18 -40 -23 0 -60 35 -52 49 8 13 53 7 70 -9z"/>
<path d="M3597 2693 c-13 -12 -7 -23 13 -23 11 0 20 -7 20 -15 0 -8 -6 -15
-14 -15 -7 0 -19 7 -26 15 -16 19 -59 19 -66 0 -4 -8 0 -23 7 -31 8 -9 14 -24
14 -33 0 -8 8 -17 19 -19 10 -2 16 0 12 6 -3 5 13 16 35 25 35 14 40 20 37 43
-3 27 -39 60 -51 47z m-9 -61 c2 -7 -6 -12 -17 -12 -21 0 -27 11 -14 24 9 9
26 2 31 -12z"/>
<path d="M345 2580 c-4 -12 -4 -24 -1 -27 3 -4 -1 -14 -9 -22 -8 -9 -17 -34
-20 -56 l-7 -40 38 -1 c24 0 42 -7 50 -19 16 -22 20 -19 30 19 5 21 4 27 -5
22 -19 -12 -83 14 -79 32 4 19 28 18 70 -3 23 -11 28 -11 32 2 10 26 6 33 -20
33 -14 0 -34 5 -45 10 -22 12 -26 40 -5 40 25 0 76 -22 76 -33 0 -17 20 15 20
33 0 9 -10 16 -22 16 -13 1 -39 5 -59 9 -32 6 -38 5 -44 -15z"/>
<path d="M3614 2570 c-6 -6 -29 -12 -50 -13 -34 -3 -39 -6 -42 -31 -5 -38 22
-76 54 -76 31 0 39 20 25 62 l-11 33 21 -27 c14 -19 30 -28 50 -28 18 0 29 -5
29 -14 0 -15 -97 -43 -133 -38 -15 2 -17 -3 -11 -20 9 -31 11 -33 29 -18 17
14 23 11 39 -22 15 -30 70 -37 97 -12 21 19 25 49 9 59 -6 4 -8 11 -4 16 3 5
1 15 -4 22 -6 7 -13 30 -17 52 -4 22 -12 46 -18 53 -12 15 -49 16 -63 2z m61
-30 c0 -17 -42 -32 -51 -18 -8 12 25 40 41 35 5 -2 10 -10 10 -17z m-101 -32
c11 -44 6 -54 -14 -29 -11 13 -20 29 -20 37 0 23 27 16 34 -8z m124 -101 c4
-19 -38 -40 -63 -31 -22 9 -18 33 8 44 31 13 51 8 55 -13z"/>
<path d="M297 2392 c-21 -23 -21 -41 -1 -70 23 -33 83 -27 103 9 13 24 13 29
-2 53 -21 32 -75 36 -100 8z m88 -37 c0 -15 -8 -21 -34 -23 -38 -4 -57 9 -47
33 4 12 16 15 43 13 30 -2 38 -7 38 -23z"/>
<path d="M3720 2340 c-8 -5 -27 -10 -41 -10 -37 0 -64 -23 -54 -46 9 -22 11
-34 13 -94 2 -26 6 -40 10 -33 4 7 22 16 40 19 28 6 33 3 42 -20 14 -37 31
-23 27 20 -5 43 -10 48 -35 35 -12 -6 -33 -11 -47 -11 -43 0 -23 24 28 34 40
8 47 13 47 33 0 23 -1 23 -24 7 -31 -19 -70 -15 -74 9 -3 13 4 17 30 18 47 1
66 11 59 31 -4 13 -10 15 -21 8z"/>
<path d="M214 2245 c-8 -54 9 -86 55 -105 58 -23 121 13 121 71 0 35 -16 69
-32 69 -9 0 -9 -3 0 -12 17 -17 15 -64 -4 -82 -20 -20 -73 -20 -102 0 -30 21
-28 58 6 83 l27 20 -32 1 c-30 0 -32 -2 -39 -45z"/>
<path d="M1050 2930 c0 -25 4 -30 24 -30 34 0 74 -36 86 -78 6 -20 15 -125 19
-232 13 -297 48 -409 158 -510 44 -40 52 -53 44 -67 -5 -10 -113 -182 -239
-381 l-231 -364 -73 -51 -73 -52 114 -3 c84 -2 118 1 127 10 6 7 121 186 254
398 133 212 245 388 249 392 3 3 40 -3 81 -13 41 -11 123 -23 183 -26 l107 -6
0 -276 c0 -152 -4 -293 -9 -314 -18 -77 -74 -112 -191 -123 -65 -6 -71 -9 -68
-28 l3 -21 808 -3 807 -2 0 182 0 182 -28 -45 c-15 -24 -40 -65 -55 -91 l-28
-48 -485 0 c-452 0 -485 1 -491 18 -4 9 -7 141 -8 292 l0 275 110 7 c287 19
480 134 545 324 31 88 40 161 49 367 11 246 16 259 114 291 18 6 24 41 8 51
-16 9 -142 -14 -191 -36 -83 -37 -143 -112 -174 -219 -9 -30 -23 -131 -31
-225 -8 -93 -22 -195 -30 -225 -37 -140 -161 -226 -335 -232 l-65 -3 -3 279
c-3 337 7 476 35 514 32 43 77 64 156 71 65 5 72 8 75 29 l3 22 -396 0 -396 0
3 -22 c3 -21 10 -24 73 -29 101 -8 175 -49 175 -97 0 -12 -279 -463 -343 -556
-20 -28 -21 -28 -28 -8 -15 40 -29 138 -39 277 -15 204 -50 306 -128 377 -55
50 -73 58 -161 74 -109 19 -111 19 -111 -16z m830 -656 l0 -267 -62 7 c-88 10
-170 34 -201 59 l-26 22 142 223 c77 122 142 222 144 222 2 0 3 -120 3 -266z"/>
</g>
</svg>
